<?xml version="1.0" encoding="utf-8"?>
<svg xmlns="http://www.w3.org/2000/svg" style="margin: auto; background: rgb(241, 242, 243); display: block; shape-rendering: auto;" width="248" height="145" preserveAspectRatio="xMidYMid">
<style type="text/css">
  text {
    text-anchor: middle; font-size: 116px; opacity: 0;
  }
</style>
<g style="transform-origin: 124px 72.5px; transform: scale(2.23077);">
<g transform="translate(124,72.5)">
  <g transform="translate(0,0)"><g class="path" style="transform: scale(0.91); transform-origin: -9.15497px -0.0940015px; animation: 0.746269s linear -0.328358s infinite normal forwards running breath-2bae5624-c5bd-4e69-b65d-2a500366d61f;"><path d="M5.82-5.77L5.82-5.77L5.82-5.77Q7.23-5.77 8.19-4.86L8.19-4.86L8.19-4.86Q9.15-3.95 9.15-2.60L9.15-2.60L9.15-2.60Q9.15-1.25 8.19-0.29L8.19-0.29L8.19-0.29Q7.23 0.68 5.88 0.68L5.88 0.68L5.88 0.68Q4.52 0.68 3.56-0.29L3.56-0.29L3.56-0.29Q2.60-1.25 2.60-2.60L2.60-2.60L2.60-2.60Q2.60-3.95 3.54-4.86L3.54-4.86L3.54-4.86Q4.47-5.77 5.82-5.77" fill="#1d0e0b" stroke="none" stroke-width="none" transform="translate(-15.029970407485962,2.4509986591339112)" style="fill: rgb(29, 14, 11);"></path></g><g class="path" style="transform: scale(0.91); transform-origin: 2.59503px -0.0940015px; animation: 0.746269s linear -0.164179s infinite normal forwards running breath-2bae5624-c5bd-4e69-b65d-2a500366d61f;"><path d="M17.58-5.77L17.58-5.77L17.58-5.77Q18.98-5.77 19.94-4.86L19.94-4.86L19.94-4.86Q20.90-3.95 20.90-2.60L20.90-2.60L20.90-2.60Q20.90-1.25 19.94-0.29L19.94-0.29L19.94-0.29Q18.98 0.68 17.63 0.68L17.63 0.68L17.63 0.68Q16.28 0.68 15.31-0.29L15.31-0.29L15.31-0.29Q14.35-1.25 14.35-2.60L14.35-2.60L14.35-2.60Q14.35-3.95 15.29-4.86L15.29-4.86L15.29-4.86Q16.22-5.77 17.58-5.77" fill="#1d0e0b" stroke="none" stroke-width="none" transform="translate(-15.029970407485962,2.4509986591339112)" style="fill: rgb(119, 64, 35);"></path></g><g class="path" style="transform: scale(0.91); transform-origin: 14.35px -0.0940015px; animation: 0.746269s linear 0s infinite normal forwards running breath-2bae5624-c5bd-4e69-b65d-2a500366d61f;"><path d="M29.33-5.77L29.33-5.77L29.33-5.77Q30.73-5.77 31.69-4.86L31.69-4.86L31.69-4.86Q32.66-3.95 32.66-2.60L32.66-2.60L32.66-2.60Q32.66-1.25 31.69-0.29L31.69-0.29L31.69-0.29Q30.73 0.68 29.38 0.68L29.38 0.68L29.38 0.68Q28.03 0.68 27.07-0.29L27.07-0.29L27.07-0.29Q26.10-1.25 26.10-2.60L26.10-2.60L26.10-2.60Q26.10-3.95 27.04-4.86L27.04-4.86L27.04-4.86Q27.98-5.77 29.33-5.77" fill="#1d0e0b" stroke="none" stroke-width="none" transform="translate(-15.029970407485962,2.4509986591339112)" style="fill: rgb(216, 140, 81);"></path></g></g>
</g>
</g>
<style id="breath-2bae5624-c5bd-4e69-b65d-2a500366d61f" data-anikit="">@keyframes breath-2bae5624-c5bd-4e69-b65d-2a500366d61f
{
  0% {
    animation-timing-function: cubic-bezier(0.9647,0.2413,-0.0705,0.7911);
    transform: scale(0.9099999999999999);
  }
  51% {
    animation-timing-function: cubic-bezier(0.9226,0.2631,-0.0308,0.7628);
    transform: scale(1.02994);
  }
  100% {
    transform: scale(0.9099999999999999);
  }
}</style></svg>